<svg width="200" height="200" viewBox="0 0 200 200" xmlns="http://www.w3.org/2000/svg">
  <!-- Calendar background -->
  <rect x="40" y="40" width="120" height="120" rx="5" fill="#FFFFFF" stroke="#FF595E" stroke-width="2" />
  
  <!-- Calendar header -->
  <rect x="40" y="40" width="120" height="25" rx="5" fill="#FF595E" />
  <text x="100" y="57" font-family="Arial" font-size="12" font-weight="bold" text-anchor="middle" fill="white">MARCH 2025</text>
  
  <!-- Calendar grid -->
  <line x1="40" y1="65" x2="160" y2="65" stroke="#CCCCCC" />
  <line x1="60" y1="65" x2="60" y2="160" stroke="#CCCCCC" />
  <line x1="80" y1="65" x2="80" y2="160" stroke="#CCCCCC" />
  <line x1="100" y1="65" x2="100" y2="160" stroke="#CCCCCC" />
  <line x1="120" y1="65" x2="120" y2="160" stroke="#CCCCCC" />
  <line x1="140" y1="65" x2="140" y2="160" stroke="#CCCCCC" />
  
  <line x1="40" y1="85" x2="160" y2="85" stroke="#CCCCCC" />
  <line x1="40" y1="105" x2="160" y2="105" stroke="#CCCCCC" />
  <line x1="40" y1="125" x2="160" y2="125" stroke="#CCCCCC" />
  <line x1="40" y1="145" x2="160" y2="145" stroke="#CCCCCC" />
  
  <!-- Exam date highlighted -->
  <rect x="100" y="105" width="20" height="20" fill="#FFCA3A" fill-opacity="0.5" />
  <text x="110" y="119" font-family="Arial" font-size="10" font-weight="bold" text-anchor="middle" fill="#333333">15</text>
  
  <!-- Alarm/notification icon -->
  <circle cx="145" cy="170" r="15" fill="#8AC926" />
  <path d="M145 160 L145 171 L152 166" stroke="white" stroke-width="2" fill="none" />
  <path d="M138 157 C138 156, 145 153, 152 157" stroke="white" stroke-width="2" fill="none" />
  <path d="M138 183 C138 184, 145 187, 152 183" stroke="white" stroke-width="2" fill="none" />
</svg>